<svg xmlns="http://www.w3.org/2000/svg" width="100" height="100"><defs><linearGradient id="A" x1="50.1" x2="50.1" y1=".097" y2="100.001" gradientUnits="userSpaceOnUse"><stop stop-color="red" offset="0"/><stop stop-color="#ef8461" offset="1"/></linearGradient><filter id="B" color-interpolation-filters="sRGB"><feFlood flood-color="#000" flood-opacity=".498"/><feComposite in2="SourceGraphic" operator="in"/><feGaussianBlur stdDeviation=".5"/><feOffset dx="0.5"/><feComposite in="SourceGraphic"/></filter></defs><circle cx="50" cy="50" r="50" fill="url(#A)"/><g fill="#fff"><path d="M57.536 21.758c1.565 0 2.557 1.259 2.224 2.824l-2.465 11.596h11.297l2.464-11.596c.333-1.565 1.86-2.824 3.424-2.824s2.557 1.259 2.224 2.824l-2.465 11.596h8.472c1.565 0 2.557 1.259 2.224 2.824s-1.86 2.824-3.424 2.824H73.04l-3.602 16.945h8.472c1.565 0 2.557 1.259 2.224 2.824s-1.86 2.824-3.424 2.824h-8.472l-2.338 10.999c-.333 1.565-1.86 2.824-3.424 2.824s-2.556-1.259-2.224-2.824l2.338-10.998H51.293l-2.338 10.998c-.333 1.565-1.86 2.824-3.424 2.824s-2.556-1.259-2.224-2.824l2.338-10.998h-8.473c-1.565 0-2.556-1.259-2.224-2.824s1.86-2.824 3.424-2.824h8.472l3.602-16.945h-8.471c-1.565 0-2.556-1.259-2.224-2.824s1.86-2.824 3.424-2.824h8.472l2.465-11.596c.333-1.565 1.86-2.824 3.424-2.824zm.959 20.068c-1.323 0-2.623 1.081-2.904 2.404l-2.575 12.117c-.281 1.323.563 2.424 1.885 2.424h6.482c1.323 0 2.623-1.101 2.904-2.424l2.575-12.117c.281-1.322-.563-2.403-1.885-2.404z" filter="url(#B)"/><rect transform="matrix(1 0 -.20791 .97815 -471.9 -5134)" x="1597.6" y="5270.9" width="5.648" height="57.745" rx="2.824" ry="2.888" filter="url(#B)"/></g></svg>